<?xml version="1.0" standalone="no"?>
<!DOCTYPE svg PUBLIC "-//W3C//DTD SVG 20010904//EN"
 "http://www.w3.org/TR/2001/REC-SVG-20010904/DTD/svg10.dtd">
<svg version="1.0" xmlns="http://www.w3.org/2000/svg"
 width="1024.000000pt" height="1024.000000pt" viewBox="0 0 1024.000000 1024.000000"
 preserveAspectRatio="xMidYMid meet">

<g transform="translate(0.000000,1024.000000) scale(0.100000,-0.100000)"
fill="#000000" stroke="none">
<path d="M5694 6864 c-52 -26 -72 -87 -44 -139 14 -26 70 -58 92 -51 7 2 25 7
39 10 45 10 66 95 38 148 -9 17 -65 48 -86 48 -4 0 -22 -7 -39 -16z"/>
<path d="M4499 6851 c-20 -16 -24 -28 -24 -76 0 -48 4 -60 24 -76 37 -31 70
-34 110 -13 49 26 67 65 52 115 -6 21 -21 45 -34 54 -30 21 -99 19 -128 -4z"/>
<path d="M4771 6804 c-12 -20 -21 -37 -19 -38 225 -144 328 -303 328 -502 l0
-74 69 0 69 0 4 88 c6 107 32 184 94 275 47 68 152 166 210 194 l32 16 -20 33
c-11 19 -24 37 -29 40 -15 9 -158 -86 -225 -148 -34 -32 -77 -80 -95 -108 -19
-27 -37 -50 -40 -50 -4 0 -12 13 -19 29 -17 41 -151 168 -242 229 -42 29 -81
52 -87 52 -5 0 -19 -16 -30 -36z"/>
<path d="M4545 6563 c4 -21 20 -96 36 -167 16 -72 29 -135 29 -142 0 -9 -12
-8 -47 2 -77 24 -240 44 -356 44 l-108 0 3 -57 3 -58 135 -1 c172 -2 290 -27
415 -88 83 -41 223 -142 212 -153 -3 -2 -40 0 -82 6 -135 19 -149 15 -138 -42
4 -22 11 -27 35 -27 43 0 229 -29 255 -40 28 -11 69 -82 98 -168 l22 -67 92
-3 c80 -2 92 -1 97 15 17 53 59 147 84 186 l28 44 105 17 c58 9 124 16 146 16
l41 0 0 40 c0 40 0 40 -37 40 -21 0 -67 -5 -102 -10 -35 -6 -66 -8 -70 -4 -10
10 96 100 158 133 142 75 354 120 512 107 84 -7 89 -4 89 54 0 59 -3 60 -121
60 -116 0 -269 -20 -339 -45 -57 -20 -59 -20 -50 18 22 88 58 247 65 285 l7
42 -51 0 -50 0 -6 -37 c-12 -72 -56 -217 -88 -290 -28 -66 -42 -82 -120 -149
-88 -75 -179 -180 -248 -287 -21 -32 -40 -63 -43 -70 -4 -8 -10 -6 -18 7 -7
11 -38 58 -69 105 -53 81 -159 196 -276 302 -47 42 -54 54 -83 145 -17 54 -38
138 -48 186 l-17 88 -53 0 -53 0 6 -37z"/>
<path d="M4443 6002 c-92 -72 -6 -220 97 -167 37 19 63 73 54 110 -15 62 -103
95 -151 57z"/>
<path d="M5723 5996 c-23 -20 -28 -32 -28 -71 0 -40 5 -51 33 -76 45 -41 94
-40 133 2 86 92 -43 227 -138 145z"/>
<path d="M4228 5503 l-78 -4 0 -332 c0 -359 7 -419 54 -523 47 -103 166 -196
291 -229 79 -20 271 -20 350 0 121 32 229 115 280 216 48 93 54 149 57 522 l3
347 -132 0 -132 0 -3 -352 c-3 -314 -5 -357 -21 -393 -37 -83 -104 -125 -207
-133 -116 -8 -195 31 -243 122 -21 40 -22 53 -25 399 l-3 357 -22 0 c-12 0
-38 2 -57 4 -19 1 -70 1 -112 -1z"/>
<path d="M5340 4960 l0 -540 135 0 135 0 2 203 3 202 243 3 242 2 0 100 0 100
-240 0 -240 0 -2 100 c-1 55 -2 112 -2 128 l-1 27 278 5 279 5 5 103 5 102
-421 0 -421 0 0 -540z"/>
<path d="M3872 4127 c-45 -88 -80 -162 -77 -165 3 -3 48 0 100 7 117 15 408
16 518 1 294 -40 591 -150 714 -263 l23 -20 42 30 c60 43 185 109 259 139 89
35 357 101 459 114 114 14 424 12 533 -4 48 -7 87 -10 87 -7 0 3 -23 47 -51
96 -27 50 -66 123 -85 163 -36 74 -39 78 -63 63 -15 -10 -13 -19 17 -97 l20
-50 -186 -2 c-103 -1 -221 -6 -262 -12 -97 -15 -294 -64 -373 -94 -129 -48
-293 -141 -355 -199 -23 -23 -36 -29 -46 -22 -7 6 -44 34 -82 63 -148 113
-398 210 -646 249 -77 12 -169 18 -291 18 -97 0 -177 3 -177 7 0 4 9 30 20 58
24 62 25 67 3 79 -16 8 -29 -13 -101 -152z"/>
<path d="M3312 3193 l3 -188 31 -55 c25 -45 40 -60 86 -83 105 -53 240 -36
310 39 49 52 58 99 58 295 l0 179 -55 0 -55 0 0 -165 c0 -146 -2 -170 -20
-205 -35 -68 -113 -90 -178 -50 -54 33 -62 68 -62 255 l0 165 -61 0 -61 0 4
-187z"/>
<path d="M3969 3376 c-2 -2 -3 -124 -1 -271 l3 -266 56 3 56 3 2 157 c0 87 3
160 6 163 3 3 58 -60 123 -140 148 -184 150 -185 203 -185 l43 0 0 270 0 270
-55 0 -55 0 0 -159 c0 -88 -4 -162 -8 -165 -4 -2 -68 69 -142 160 l-134 164
-47 0 c-25 0 -48 -2 -50 -4z"/>
<path d="M4630 3115 l0 -265 60 0 60 0 0 265 0 265 -60 0 -60 0 0 -265z"/>
<path d="M4920 3115 l0 -265 55 0 55 0 0 95 0 94 133 3 132 3 0 45 0 45 -127
3 c-127 3 -128 3 -128 26 0 13 -3 44 -6 70 l-7 46 152 0 151 0 0 50 0 50 -205
0 -205 0 0 -265z"/>
<path d="M5450 3110 l0 -270 210 0 210 0 0 50 0 50 -155 0 -155 0 0 65 0 65
130 0 130 0 0 45 0 44 -127 3 -128 3 -3 58 -3 57 151 0 150 0 0 50 0 50 -205
0 -205 0 0 -270z"/>
<path d="M6010 3110 l0 -270 210 0 210 0 0 50 0 49 -152 3 -153 3 0 60 0 60
128 3 127 3 0 44 0 45 -124 0 c-139 0 -136 -2 -136 76 l0 44 150 0 150 0 0 50
0 50 -205 0 -205 0 0 -270z"/>
<path d="M6572 3113 l3 -267 120 -2 c66 -1 147 2 179 8 152 25 236 118 236
260 0 81 -32 151 -91 201 -64 55 -116 67 -296 67 l-153 0 2 -267z m332 147
c57 -28 79 -63 84 -130 5 -74 -15 -121 -67 -156 -35 -23 -54 -27 -136 -32
l-95 -5 0 172 0 171 87 0 c67 0 96 -5 127 -20z"/>
<path d="M4425 2700 c-4 -6 -3 -16 3 -22 6 -6 12 -6 17 2 4 6 3 16 -3 22 -6 6
-12 6 -17 -2z"/>
<path d="M4630 2666 l0 -44 -35 11 c-50 15 -89 -14 -93 -70 -4 -54 22 -86 69
-85 19 1 46 2 62 2 l27 1 0 114 c0 96 -3 115 -15 115 -11 0 -15 -12 -15 -44z
m-15 -66 c24 -27 22 -70 -5 -92 -27 -22 -39 -22 -68 -2 -43 30 -19 114 33 114
12 0 30 -9 40 -20z"/>
<path d="M5624 2699 c-8 -14 11 -33 25 -25 11 7 4 36 -9 36 -5 0 -12 -5 -16
-11z"/>
<path d="M6325 2700 c-3 -6 1 -13 10 -16 19 -8 30 0 20 15 -8 14 -22 14 -30 1z"/>
<path d="M3333 2685 c-56 -24 -78 -96 -48 -154 28 -55 130 -78 165 -36 10 12
3 13 -42 8 -44 -4 -57 -2 -80 17 -23 17 -28 30 -28 64 0 58 33 90 87 84 21 -3
46 -8 56 -12 11 -5 17 -4 17 3 0 12 -59 41 -82 41 -7 -1 -27 -7 -45 -15z"/>
<path d="M5180 2625 c0 -115 38 -166 112 -150 50 11 68 47 68 136 0 46 -4 79
-10 79 -6 0 -10 -31 -10 -73 0 -92 -15 -117 -70 -117 -21 0 -42 6 -47 13 -4 6
-10 50 -13 96 -3 55 -9 86 -17 89 -10 3 -13 -16 -13 -73z"/>
<path d="M6867 2686 c-3 -8 -3 -17 0 -20 7 -7 33 13 33 25 0 15 -27 10 -33 -5z"/>
<path d="M6420 2660 c0 -11 -7 -20 -15 -20 -8 0 -15 -4 -15 -10 0 -5 7 -10 15
-10 12 0 15 -14 15 -65 0 -55 3 -66 21 -75 22 -12 49 -7 49 10 0 5 -10 9 -22
7 -22 -2 -23 2 -23 58 0 55 2 60 23 63 28 4 29 22 1 22 -12 0 -23 8 -26 20 -3
11 -9 20 -14 20 -5 0 -9 -9 -9 -20z"/>
<path d="M3515 2615 c-34 -33 -34 -84 1 -119 30 -30 53 -32 93 -11 33 16 41
33 41 81 0 28 -6 38 -32 54 -44 26 -74 25 -103 -5z m95 -15 c11 -11 20 -31 20
-45 0 -44 -53 -79 -86 -57 -13 8 -34 46 -34 60 0 19 42 62 61 62 10 0 28 -9
39 -20z"/>
<path d="M3700 2560 c0 -47 4 -80 10 -80 6 0 10 23 10 50 0 37 5 55 20 70 41
41 69 18 77 -64 7 -70 23 -73 23 -6 0 37 5 55 20 70 42 42 70 18 70 -62 0 -45
3 -58 15 -58 12 0 15 13 15 59 0 52 -3 62 -26 80 -31 24 -53 26 -79 7 -16 -12
-22 -12 -43 2 -20 13 -29 14 -55 4 -21 -8 -33 -9 -35 -2 -2 5 -8 10 -13 10 -5
0 -9 -36 -9 -80z"/>
<path d="M4020 2570 c0 -64 2 -71 26 -87 22 -14 31 -15 57 -5 21 8 33 9 35 2
2 -6 8 -8 13 -4 12 7 12 164 -1 164 -5 0 -10 -21 -10 -48 0 -55 -21 -92 -54
-92 -35 0 -46 20 -46 82 0 32 -4 58 -10 58 -6 0 -10 -30 -10 -70z"/>
<path d="M4220 2560 c0 -47 4 -80 10 -80 6 0 10 20 10 44 0 45 29 96 54 96 27
0 46 -36 46 -88 0 -29 5 -52 10 -52 6 0 10 28 10 64 0 56 -3 67 -22 80 -27 19
-59 20 -77 4 -11 -10 -14 -10 -18 0 -13 34 -23 4 -23 -68z"/>
<path d="M4732 2628 c-20 -20 -14 -28 13 -16 19 9 29 8 50 -6 33 -22 24 -36
-25 -36 -49 0 -79 -35 -60 -69 12 -23 36 -30 93 -28 35 1 37 3 39 37 2 68 -3
95 -24 113 -23 20 -68 23 -86 5z m88 -93 c0 -21 -45 -48 -70 -40 -42 13 -15
55 37 55 22 0 33 -5 33 -15z"/>
<path d="M4911 2616 c-40 -43 -27 -113 27 -135 31 -13 82 -1 82 20 0 7 -7 8
-17 4 -41 -17 -52 -16 -72 4 -31 31 -18 41 50 41 32 0 59 4 59 10 0 23 -24 59
-47 69 -36 17 -57 13 -82 -13z m77 -12 c34 -24 26 -34 -28 -34 -54 0 -59 4
-33 32 20 22 32 23 61 2z"/>
<path d="M5425 2608 c-9 -46 -2 -133 10 -131 6 2 11 27 13 58 2 43 8 58 25 70
28 19 33 19 57 -5 15 -15 20 -33 20 -70 0 -27 5 -50 10 -50 6 0 10 27 10 60 0
84 -33 116 -95 91 -11 -5 -25 -4 -32 1 -8 7 -14 0 -18 -24z"/>
<path d="M5698 2634 c-9 -8 56 -153 69 -154 13 0 73 121 73 146 0 32 -19 10
-40 -46 -12 -33 -26 -60 -29 -60 -4 0 -18 25 -30 55 -23 54 -33 69 -43 59z"/>
<path d="M5892 2620 c-46 -43 -36 -111 20 -138 29 -13 78 -2 78 19 0 7 -7 8
-17 4 -38 -16 -83 1 -83 31 0 10 16 14 60 14 54 0 60 2 60 20 0 28 -44 70 -73
70 -13 0 -33 -9 -45 -20z m81 -22 l22 -23 -49 -3 c-58 -4 -65 1 -41 28 23 26
40 25 68 -2z"/>
<path d="M6067 2633 c-10 -10 -8 -153 2 -153 5 0 11 23 13 52 4 41 11 56 33
74 18 14 23 24 16 29 -7 4 -19 1 -27 -6 -12 -10 -17 -10 -23 -1 -4 7 -10 9
-14 5z"/>
<path d="M6187 2622 c-10 -10 -17 -26 -17 -35 0 -19 37 -47 62 -47 26 0 33
-21 12 -37 -11 -8 -30 -11 -46 -7 -35 7 -38 -13 -3 -22 49 -12 107 31 86 64
-4 6 -24 17 -46 24 -29 9 -40 19 -40 33 0 16 7 20 35 21 51 2 57 4 35 14 -33
14 -61 11 -78 -8z"/>
<path d="M6330 2560 c0 -47 4 -80 10 -80 6 0 10 33 10 80 0 47 -4 80 -10 80
-6 0 -10 -33 -10 -80z"/>
<path d="M6657 2584 c-6 -62 -20 -84 -51 -84 -34 0 -46 20 -46 77 0 29 -4 53
-10 53 -6 0 -10 -27 -10 -60 0 -73 24 -106 68 -95 15 3 37 6 50 6 21 -1 22 3
22 74 0 88 -15 107 -23 29z"/>
<path d="M6949 2623 c-13 -15 -11 -16 22 -9 45 8 69 0 69 -25 0 -15 -7 -19
-40 -19 -31 0 -43 -5 -55 -24 -31 -47 24 -93 76 -65 17 9 24 9 27 0 9 -28 22
5 22 59 0 51 -3 61 -26 79 -32 25 -76 27 -95 4z m91 -93 c0 -24 -34 -43 -60
-35 -22 7 -27 40 -7 48 6 3 24 6 40 6 20 1 27 -4 27 -19z"/>
<path d="M4430 2556 c0 -44 4 -76 10 -76 6 0 10 30 10 69 0 39 -4 73 -10 76
-6 4 -10 -22 -10 -69z"/>
<path d="M5630 2555 c0 -43 4 -75 10 -75 6 0 10 32 10 75 0 43 -4 75 -10 75
-6 0 -10 -32 -10 -75z"/>
<path d="M6740 2553 c0 -42 4 -73 10 -73 6 0 10 21 10 48 1 46 17 82 38 82 6
0 13 4 17 9 3 6 -12 9 -35 8 l-40 -1 0 -73z"/>
<path d="M6860 2555 c0 -43 4 -75 10 -75 6 0 10 17 10 38 0 20 3 54 6 75 5 30
4 37 -10 37 -13 0 -16 -12 -16 -75z"/>
</g>
</svg>
